{
  "accessors": [
    {
      "bufferView": 2,
      "componentType": 5126,
      "count": 65532,
      "max": [
        0.1613299697637558,
        0.3870964050292969,
        0.20639917254447937
      ],
      "min": [
        -0.3171849548816681,
        -0.3823406994342804,
        -0.33179354667663574
      ],
      "type": "VEC3"
    },
    {
      "bufferView": 2,
      "byteOffset": 786384,
      "componentType": 5126,
      "count": 65532,
      "max": [
        0.999995768070221,
        0.9999983906745911,
        0.9999560117721558
      ],
      "min": [
        -0.9999954104423523,
        -0.999983549118042,
        -0.9999973177909851
      ],
      "type": "VEC3"
    },
    {
      "bufferView": 1,
      "componentType": 5126,
      "count": 65532,
      "max": [
        0.981184720993042,
        0.9932919144630432
      ],
      "min": [
        0.0008365508983843029,
        6.435006798710674e-05
      ],
      "type": "VEC2"
    },
    {
      "bufferView": 0,
      "componentType": 5125,
      "count": 298947,
      "type": "SCALAR"
    },
    {
      "bufferView": 2,
      "byteOffset": 1572768,
      "componentType": 5126,
      "count": 65532,
      "max": [
        0.14856621623039246,
        0.3873359262943268,
        0.20763042569160461
      ],
      "min": [
        -0.30614224076271057,
        -0.3863348066806793,
        -0.34950751066207886
      ],
      "type": "VEC3"
    },
    {
      "bufferView": 2,
      "byteOffset": 2359152,
      "componentType": 5126,
      "count": 65532,
      "max": [
        0.9999956488609314,
        0.9999691843986511,
        0.9999982118606567
      ],
      "min": [
        -0.999992847442627,
        -0.999888002872467,
        -0.9999940395355225
      ],
      "type": "VEC3"
    },
    {
      "bufferView": 1,
      "byteOffset": 524256,
      "componentType": 5126,
      "count": 65532,
      "max": [
        0.9972842335700989,
        0.99583500623703
      ],
      "min": [
        6.435006798710674e-05,
        0.00019305020396132022
      ],
      "type": "VEC2"
    },
    {
      "bufferView": 0,
      "byteOffset": 1195788,
      "componentType": 5125,
      "count": 289551,
      "type": "SCALAR"
    },
    {
      "bufferView": 2,
      "byteOffset": 3145536,
      "componentType": 5126,
      "count": 65532,
      "max": [
        0.16632874310016632,
        0.3874494135379791,
        0.20333048701286316
      ],
      "min": [
        -0.31661856174468994,
        -0.38583335280418396,
        -0.34950751066207886
      ],
      "type": "VEC3"
    },
    {
      "bufferView": 2,
      "byteOffset": 3931920,
      "componentType": 5126,
      "count": 65532,
      "max": [
        0.9999985694885254,
        0.9999964833259583,
        0.9999841451644897
      ],
      "min": [
        -0.9999924898147583,
        -0.9999855160713196,
        -0.9999942183494568
      ],
      "type": "VEC3"
    },
    {
      "bufferView": 1,
      "byteOffset": 1048512,
      "componentType": 5126,
      "count": 65532,
      "max": [
        0.9949095249176025,
        0.9918646216392517
      ],
      "min": [
        0.00045045046135783195,
        6.435006798710674e-05
      ],
      "type": "VEC2"
    },
    {
      "bufferView": 0,
      "byteOffset": 2353992,
      "componentType": 5125,
      "count": 270939,
      "type": "SCALAR"
    },
    {
      "bufferView": 2,
      "byteOffset": 4718304,
      "componentType": 5126,
      "count": 65532,
      "max": [
        0.16632874310016632,
        0.3866126537322998,
        0.20790350437164307
      ],
      "min": [
        -0.31285378336906433,
        -0.3862551152706146,
        -0.3415728509426117
      ],
      "type": "VEC3"
    },
    {
      "bufferView": 2,
      "byteOffset": 5504688,
      "componentType": 5126,
      "count": 65532,
      "max": [
        0.9999967813491821,
        0.9999964833259583,
        0.9999974370002747
      ],
      "min": [
        -0.999969482421875,
        -0.9999793767929077,
        -0.9999942183494568
      ],
      "type": "VEC3"
    },
    {
      "bufferView": 1,
      "byteOffset": 1572768,
      "componentType": 5126,
      "count": 65532,
      "max": [
        0.9988689422607422,
        0.9983036518096924
      ],
      "min": [
        0.0005791506264358759,
        6.435006798710674e-05
      ],
      "type": "VEC2"
    },
    {
      "bufferView": 0,
      "byteOffset": 3437748,
      "componentType": 5125,
      "count": 234768,
      "type": "SCALAR"
    },
    {
      "bufferView": 2,
      "byteOffset": 6291072,
      "componentType": 5126,
      "count": 65533,
      "max": [
        0.16492101550102234,
        0.38778555393218994,
        0.2021491825580597
      ],
      "min": [
        -0.31127801537513733,
        -0.38778555393218994,
        -0.3493977189064026
      ],
      "type": "VEC3"
    },
    {
      "bufferView": 2,
      "byteOffset": 7077468,
      "componentType": 5126,
      "count": 65533,
      "max": [
        0.9999956488609314,
        0.9999823570251465,
        0.9999694228172302
      ],
      "min": [
        -0.9999806880950928,
        -0.9999688863754272,
        -0.9999940395355225
      ],
      "type": "VEC3"
    },
    {
      "bufferView": 1,
      "byteOffset": 2097024,
      "componentType": 5126,
      "count": 65533,
      "max": [
        0.9995113015174866,
        0.9989388585090637
      ],
      "min": [
        6.435006798710674e-05,
        6.435006798710674e-05
      ],
      "type": "VEC2"
    },
    {
      "bufferView": 0,
      "byteOffset": 4376820,
      "componentType": 5125,
      "count": 238590,
      "type": "SCALAR"
    },
    {
      "bufferView": 2,
      "byteOffset": 7863864,
      "componentType": 5126,
      "count": 65532,
      "max": [
        0.15735429525375366,
        0.38360267877578735,
        0.20823058485984802
      ],
      "min": [
        -0.31127801537513733,
        -0.38778555393218994,
        -0.34928712248802185
      ],
      "type": "VEC3"
    },
    {
      "bufferView": 2,
      "byteOffset": 8650248,
      "componentType": 5126,
      "count": 65532,
      "max": [
        0.999986469745636,
        0.9997974634170532,
        0.9999906420707703
      ],
      "min": [
        -0.999992847442627,
        -0.9999582171440125,
        -0.999991238117218
      ],
      "type": "VEC3"
    },
    {
      "bufferView": 1,
      "byteOffset": 2621288,
      "componentType": 5126,
      "count": 65532,
      "max": [
        0.9994055032730103,
        0.9995548129081726
      ],
      "min": [
        0.00032175035448744893,
        0.00019305020396132022
      ],
      "type": "VEC2"
    },
    {
      "bufferView": 0,
      "byteOffset": 5331180,
      "componentType": 5125,
      "count": 290778,
      "type": "SCALAR"
    },
    {
      "bufferView": 2,
      "byteOffset": 9436632,
      "componentType": 5126,
      "count": 47942,
      "max": [
        0.16530556976795197,
        0.3867759108543396,
        0.20647254586219788
      ],
      "min": [
        -0.3171849548816681,
        -0.38515427708625793,
        -0.34782955050468445
      ],
      "type": "VEC3"
    },
    {
      "bufferView": 2,
      "byteOffset": 10011936,
      "componentType": 5126,
      "count": 47942,
      "max": [
        0.9999967813491821,
        0.9999923706054688,
        0.9999560117721558
      ],
      "min": [
        -0.9999989867210388,
        -0.9999901056289673,
        -0.9999903440475464
      ],
      "type": "VEC3"
    },
    {
      "bufferView": 1,
      "byteOffset": 3145544,
      "componentType": 5126,
      "count": 47942,
      "max": [
        0.9988034963607788,
        0.9947715997695923
      ],
      "min": [
        6.435006798710674e-05,
        6.435006798710674e-05
      ],
      "type": "VEC2"
    },
    {
      "bufferView": 0,
      "byteOffset": 6494292,
      "componentType": 5125,
      "count": 182619,
      "type": "SCALAR"
    }
  ],
  "asset": {
    "extras": {
      "author": "Karolisbutenas (https://sketchfab.com/Karolisbutenas)",
      "license": "CC-BY-NC-SA-4.0 (http://creativecommons.org/licenses/by-nc-sa/4.0/)",
      "source": "https://sketchfab.com/3d-models/laundry-basket-9e90243fed47475096df9e70c72591a5",
      "title": "Laundry basket"
    },
    "generator": "Sketchfab-14.41.0",
    "version": "2.0"
  },
  "bufferViews": [
    {
      "buffer": 0,
      "byteLength": 7224768,
      "name": "floatBufferViews",
      "target": 34963
    },
    {
      "buffer": 0,
      "byteLength": 3529080,
      "byteOffset": 7224768,
      "byteStride": 8,
      "name": "floatBufferViews",
      "target": 34962
    },
    {
      "buffer": 0,
      "byteLength": 10587240,
      "byteOffset": 10753848,
      "byteStride": 12,
      "name": "floatBufferViews",
      "target": 34962
    }
  ],
  "buffers": [
    {
      "byteLength": 21341088,
      "uri": "laundry.bin"
    }
  ],
  "extensionsUsed": [
    "KHR_materials_unlit"
  ],
  "images": [
    {
      "uri": "laundry_textures/material_0_baseColor.jpeg"
    }
  ],
  "materials": [
    {
      "extensions": {
        "KHR_materials_unlit": {}
      },
      "name": "material_0",
      "pbrMetallicRoughness": {
        "baseColorTexture": {
          "index": 0
        },
        "metallicFactor": 0.0
      }
    }
  ],
  "meshes": [
    {
      "name": "Object_0",
      "primitives": [
        {
          "attributes": {
            "NORMAL": 1,
            "POSITION": 0,
            "TEXCOORD_0": 2
          },
          "indices": 3,
          "material": 0,
          "mode": 4
        }
      ]
    },
    {
      "name": "Object_1",
      "primitives": [
        {
          "attributes": {
            "NORMAL": 5,
            "POSITION": 4,
            "TEXCOORD_0": 6
          },
          "indices": 7,
          "material": 0,
          "mode": 4
        }
      ]
    },
    {
      "name": "Object_2",
      "primitives": [
        {
          "attributes": {
            "NORMAL": 9,
            "POSITION": 8,
            "TEXCOORD_0": 10
          },
          "indices": 11,
          "material": 0,
          "mode": 4
        }
      ]
    },
    {
      "name": "Object_3",
      "primitives": [
        {
          "attributes": {
            "NORMAL": 13,
            "POSITION": 12,
            "TEXCOORD_0": 14
          },
          "indices": 15,
          "material": 0,
          "mode": 4
        }
      ]
    },
    {
      "name": "Object_4",
      "primitives": [
        {
          "attributes": {
            "NORMAL": 17,
            "POSITION": 16,
            "TEXCOORD_0": 18
          },
          "indices": 19,
          "material": 0,
          "mode": 4
        }
      ]
    },
    {
      "name": "Object_5",
      "primitives": [
        {
          "attributes": {
            "NORMAL": 21,
            "POSITION": 20,
            "TEXCOORD_0": 22
          },
          "indices": 23,
          "material": 0,
          "mode": 4
        }
      ]
    },
    {
      "name": "Object_6",
      "primitives": [
        {
          "attributes": {
            "NORMAL": 25,
            "POSITION": 24,
            "TEXCOORD_0": 26
          },
          "indices": 27,
          "material": 0,
          "mode": 4
        }
      ]
    }
  ],
  "nodes": [
    {
      "children": [
        1
      ],
      "matrix": [
        1.0,
        0.0,
        0.0,
        0.0,
        0.0,
        2.220446049250313e-16,
        -1.0,
        0.0,
        0.0,
        1.0,
        2.220446049250313e-16,
        0.0,
        0.0,
        0.0,
        0.0,
        1.0
      ],
      "name": "Sketchfab_model"
    },
    {
      "children": [
        2
      ],
      "name": "root"
    },
    {
      "children": [
        3
      ],
      "matrix": [
        1.0,
        0.0,
        0.0,
        0.0,
        0.0,
        2.220446049250313e-16,
        1.0,
        0.0,
        0.0,
        -1.0,
        2.220446049250313e-16,
        0.0,
        0.0,
        0.0,
        0.0,
        1.0
      ],
      "name": "GLTF_SceneRootNode"
    },
    {
      "children": [
        4,
        5,
        6,
        7,
        8,
        9,
        10
      ],
      "name": "_0"
    },
    {
      "mesh": 0,
      "name": "Object_4"
    },
    {
      "mesh": 1,
      "name": "Object_5"
    },
    {
      "mesh": 2,
      "name": "Object_6"
    },
    {
      "mesh": 3,
      "name": "Object_7"
    },
    {
      "mesh": 4,
      "name": "Object_8"
    },
    {
      "mesh": 5,
      "name": "Object_9"
    },
    {
      "mesh": 6,
      "name": "Object_10"
    }
  ],
  "samplers": [
    {
      "magFilter": 9729,
      "minFilter": 9987,
      "wrapS": 10497,
      "wrapT": 10497
    }
  ],
  "scene": 0,
  "scenes": [
    {
      "name": "Sketchfab_Scene",
      "nodes": [
        0
      ]
    }
  ],
  "textures": [
    {
      "sampler": 0,
      "source": 0
    }
  ]
}
