{
  "accessors": [
    {
      "bufferView": 2,
      "componentType": 5126,
      "count": 949,
      "max": [
        94.95864868164063,
        44.958648681640625,
        17.958648681640625
      ],
      "min": [
        -94.95864868164063,
        -44.958648681640625,
        0.041348960250616074
      ],
      "type": "VEC3"
    },
    {
      "bufferView": 2,
      "byteOffset": 11388,
      "componentType": 5126,
      "count": 949,
      "max": [
        1.0,
        1.0,
        1.0
      ],
      "min": [
        -1.0,
        -1.0,
        -1.0
      ],
      "type": "VEC3"
    },
    {
      "bufferView": 1,
      "componentType": 5126,
      "count": 949,
      "max": [
        0.9550175070762634,
        1.0
      ],
      "min": [
        0.0,
        3.897934450189963e-17
      ],
      "type": "VEC2"
    },
    {
      "bufferView": 0,
      "componentType": 5125,
      "count": 5184,
      "type": "SCALAR"
    },
    {
      "bufferView": 2,
      "byteOffset": 22776,
      "componentType": 5126,
      "count": 949,
      "max": [
        89.98221588134766,
        42.48222351074219,
        4.662221431732178
      ],
      "min": [
        -89.98221588134766,
        -42.48222351074219,
        0.017779212445020676
      ],
      "type": "VEC3"
    },
    {
      "bufferView": 2,
      "byteOffset": 34164,
      "componentType": 5126,
      "count": 949,
      "max": [
        1.0,
        1.0,
        1.0
      ],
      "min": [
        -1.0,
        -1.0,
        -1.0
      ],
      "type": "VEC3"
    },
    {
      "bufferView": 1,
      "byteOffset": 7592,
      "componentType": 5126,
      "count": 949,
      "max": [
        0.9334644675254822,
        1.0
      ],
      "min": [
        0.0,
        6.23524378228838e-17
      ],
      "type": "VEC2"
    },
    {
      "bufferView": 0,
      "byteOffset": 20736,
      "componentType": 5125,
      "count": 5184,
      "type": "SCALAR"
    },
    {
      "bufferView": 2,
      "byteOffset": 45552,
      "componentType": 5126,
      "count": 65532,
      "max": [
        113.72933959960938,
        67.75354766845703,
        -28.10614013671875
      ],
      "min": [
        -106.00102233886719,
        -84.62261962890625,
        -59.797119140625
      ],
      "type": "VEC3"
    },
    {
      "bufferView": 2,
      "byteOffset": 831936,
      "componentType": 5126,
      "count": 65532,
      "max": [
        0.9997169375419617,
        0.9997918605804443,
        1.0
      ],
      "min": [
        -0.9996803402900696,
        -0.9991316795349121,
        -1.0
      ],
      "type": "VEC3"
    },
    {
      "bufferView": 1,
      "byteOffset": 15184,
      "componentType": 5126,
      "count": 65532,
      "max": [
        0.6737042665481567,
        1.0
      ],
      "min": [
        5.551115123125783e-17,
        0.005297456867992878
      ],
      "type": "VEC2"
    },
    {
      "bufferView": 0,
      "byteOffset": 41472,
      "componentType": 5125,
      "count": 387696,
      "type": "SCALAR"
    },
    {
      "bufferView": 2,
      "byteOffset": 1618320,
      "componentType": 5126,
      "count": 16148,
      "max": [
        114.19633483886719,
        67.82977294921875,
        -27.20340347290039
      ],
      "min": [
        -105.30437469482422,
        -85.09138488769531,
        -59.51365280151367
      ],
      "type": "VEC3"
    },
    {
      "bufferView": 2,
      "byteOffset": 1812096,
      "componentType": 5126,
      "count": 16148,
      "max": [
        0.9999538064002991,
        0.9997969269752502,
        1.0
      ],
      "min": [
        -0.8843730688095093,
        -0.999904215335846,
        -0.9968768954277039
      ],
      "type": "VEC3"
    },
    {
      "bufferView": 1,
      "byteOffset": 539440,
      "componentType": 5126,
      "count": 16148,
      "max": [
        0.690475344657898,
        0.5184845924377441
      ],
      "min": [
        0.007791486568748951,
        -1.0116230956088356e-16
      ],
      "type": "VEC2"
    },
    {
      "bufferView": 0,
      "byteOffset": 1592256,
      "componentType": 5125,
      "count": 92304,
      "type": "SCALAR"
    },
    {
      "bufferView": 2,
      "byteOffset": 2005872,
      "componentType": 5126,
      "count": 65532,
      "max": [
        55.94062042236328,
        82.99017333984375,
        -18.426837921142578
      ],
      "min": [
        -36.00637435913086,
        -108.44454956054688,
        -77.5364990234375
      ],
      "type": "VEC3"
    },
    {
      "bufferView": 2,
      "byteOffset": 2792256,
      "componentType": 5126,
      "count": 65532,
      "max": [
        1.0,
        0.9999862909317017,
        0.9999996423721313
      ],
      "min": [
        -0.44295015931129456,
        -0.9999976754188538,
        -0.9997944235801697
      ],
      "type": "VEC3"
    },
    {
      "bufferView": 1,
      "byteOffset": 668624,
      "componentType": 5126,
      "count": 65532,
      "max": [
        0.5187437534332275,
        0.5078469514846802
      ],
      "min": [
        0.09553974866867065,
        -2.979163768003634e-17
      ],
      "type": "VEC2"
    },
    {
      "bufferView": 0,
      "byteOffset": 1961472,
      "componentType": 5125,
      "count": 390075,
      "type": "SCALAR"
    },
    {
      "bufferView": 2,
      "byteOffset": 3578640,
      "componentType": 5126,
      "count": 65532,
      "max": [
        55.29522705078125,
        82.80610656738281,
        -18.406566619873047
      ],
      "min": [
        -55.40829849243164,
        -105.38056182861328,
        -78.20892333984375
      ],
      "type": "VEC3"
    },
    {
      "bufferView": 2,
      "byteOffset": 4365024,
      "componentType": 5126,
      "count": 65532,
      "max": [
        0.9393292665481567,
        0.9989410042762756,
        0.9999993443489075
      ],
      "min": [
        -0.9999920725822449,
        -0.9976876378059387,
        -1.0
      ],
      "type": "VEC3"
    },
    {
      "bufferView": 1,
      "byteOffset": 1192880,
      "componentType": 5126,
      "count": 65532,
      "max": [
        0.49362123012542725,
        1.0
      ],
      "min": [
        0.0,
        0.0013088249834254384
      ],
      "type": "VEC2"
    },
    {
      "bufferView": 0,
      "byteOffset": 3521772,
      "componentType": 5125,
      "count": 388665,
      "type": "SCALAR"
    },
    {
      "bufferView": 2,
      "byteOffset": 5151408,
      "componentType": 5126,
      "count": 28697,
      "max": [
        55.08832550048828,
        77.43156433105469,
        -21.914457321166992
      ],
      "min": [
        -53.7446174621582,
        -107.4515380859375,
        -74.31661987304688
      ],
      "type": "VEC3"
    },
    {
      "bufferView": 2,
      "byteOffset": 5495772,
      "componentType": 5126,
      "count": 28697,
      "max": [
        0.9035040140151978,
        0.8118079304695129,
        0.036541763693094254
      ],
      "min": [
        -0.7984893321990967,
        -0.9997652769088745,
        -0.9999991059303284
      ],
      "type": "VEC3"
    },
    {
      "bufferView": 1,
      "byteOffset": 1717136,
      "componentType": 5126,
      "count": 28697,
      "max": [
        0.5197787880897522,
        0.9998472929000854
      ],
      "min": [
        0.01709304004907608,
        0.510988175868988
      ],
      "type": "VEC2"
    },
    {
      "bufferView": 0,
      "byteOffset": 5076432,
      "componentType": 5125,
      "count": 169740,
      "type": "SCALAR"
    },
    {
      "bufferView": 2,
      "byteOffset": 5840136,
      "componentType": 5126,
      "count": 33207,
      "max": [
        19.08355140686035,
        37.0191650390625,
        -6.134815692901611
      ],
      "min": [
        -19.47238540649414,
        -37.0634765625,
        -14.376510620117188
      ],
      "type": "VEC3"
    },
    {
      "bufferView": 2,
      "byteOffset": 6238620,
      "componentType": 5126,
      "count": 33207,
      "max": [
        0.9999969601631165,
        0.9998416900634766,
        0.9999974370002747
      ],
      "min": [
        -0.9999672174453735,
        -0.9971400499343872,
        -1.0
      ],
      "type": "VEC3"
    },
    {
      "bufferView": 1,
      "byteOffset": 1946712,
      "componentType": 5126,
      "count": 33207,
      "max": [
        1.0,
        0.9760003089904785
      ],
      "min": [
        0.0,
        1.0398901732454877e-16
      ],
      "type": "VEC2"
    },
    {
      "bufferView": 0,
      "byteOffset": 5755392,
      "componentType": 5125,
      "count": 196800,
      "type": "SCALAR"
    }
  ],
  "asset": {
    "extras": {
      "author": "Ingrid Bie (https://sketchfab.com/ingridbie)",
      "license": "CC-BY-4.0 (http://creativecommons.org/licenses/by/4.0/)",
      "source": "https://sketchfab.com/3d-models/dorm-floor-mattress-with-sheets-no-texture-1fa7d1844949448b8b8abaf4183126c5",
      "title": "Dorm Floor Mattress With Sheets [No Texture]"
    },
    "generator": "Sketchfab-12.82.2",
    "version": "2.0"
  },
  "bufferViews": [
    {
      "buffer": 0,
      "byteLength": 6542592,
      "name": "floatBufferViews",
      "target": 34963
    },
    {
      "buffer": 0,
      "byteLength": 2212368,
      "byteOffset": 6542592,
      "byteStride": 8,
      "name": "floatBufferViews",
      "target": 34962
    },
    {
      "buffer": 0,
      "byteLength": 6637104,
      "byteOffset": 8754960,
      "byteStride": 12,
      "name": "floatBufferViews",
      "target": 34962
    }
  ],
  "buffers": [
    {
      "byteLength": 15392064,
      "uri": "scene.bin"
    }
  ],
  "materials": [
    {
      "doubleSided": true,
      "name": "Material_131",
      "pbrMetallicRoughness": {
        "metallicFactor": 0.0,
        "roughnessFactor": 0.6
      }
    }
  ],
  "meshes": [
    {
      "name": "GEO_Mattress_001_Material #131_0",
      "primitives": [
        {
          "attributes": {
            "NORMAL": 1,
            "POSITION": 0,
            "TEXCOORD_0": 2
          },
          "indices": 3,
          "material": 0,
          "mode": 4
        }
      ]
    },
    {
      "name": "GEO_Mattress_Top_001_Material #131_0",
      "primitives": [
        {
          "attributes": {
            "NORMAL": 5,
            "POSITION": 4,
            "TEXCOORD_0": 6
          },
          "indices": 7,
          "material": 0,
          "mode": 4
        }
      ]
    },
    {
      "name": "GEO_Blanket_Underneath_001_Material #131_0",
      "primitives": [
        {
          "attributes": {
            "NORMAL": 9,
            "POSITION": 8,
            "TEXCOORD_0": 10
          },
          "indices": 11,
          "material": 0,
          "mode": 4
        }
      ]
    },
    {
      "name": "GEO_Blanket_Underneath_001_Material #131_0",
      "primitives": [
        {
          "attributes": {
            "NORMAL": 13,
            "POSITION": 12,
            "TEXCOORD_0": 14
          },
          "indices": 15,
          "material": 0,
          "mode": 4
        }
      ]
    },
    {
      "name": "GEO_Blanket_Top_001_Material #131_0",
      "primitives": [
        {
          "attributes": {
            "NORMAL": 17,
            "POSITION": 16,
            "TEXCOORD_0": 18
          },
          "indices": 19,
          "material": 0,
          "mode": 4
        }
      ]
    },
    {
      "name": "GEO_Blanket_Top_001_Material #131_0",
      "primitives": [
        {
          "attributes": {
            "NORMAL": 21,
            "POSITION": 20,
            "TEXCOORD_0": 22
          },
          "indices": 23,
          "material": 0,
          "mode": 4
        }
      ]
    },
    {
      "name": "GEO_Blanket_Top_001_Material #131_0",
      "primitives": [
        {
          "attributes": {
            "NORMAL": 25,
            "POSITION": 24,
            "TEXCOORD_0": 26
          },
          "indices": 27,
          "material": 0,
          "mode": 4
        }
      ]
    },
    {
      "name": "GEO_Bed_Pillow_001_Material #131_0",
      "primitives": [
        {
          "attributes": {
            "NORMAL": 29,
            "POSITION": 28,
            "TEXCOORD_0": 30
          },
          "indices": 31,
          "material": 0,
          "mode": 4
        }
      ]
    }
  ],
  "nodes": [
    {
      "children": [
        1
      ],
      "matrix": [
        1.0,
        0.0,
        0.0,
        0.0,
        0.0,
        2.220446049250313e-16,
        -1.0,
        0.0,
        0.0,
        1.0,
        2.220446049250313e-16,
        0.0,
        0.0,
        0.0,
        0.0,
        1.0
      ],
      "name": "Sketchfab_model"
    },
    {
      "children": [
        2
      ],
      "matrix": [
        0.009999999776482582,
        0.0,
        0.0,
        0.0,
        0.0,
        0.0,
        0.009999999776482582,
        0.0,
        0.0,
        -0.009999999776482582,
        0.0,
        0.0,
        0.0,
        0.0,
        0.0,
        1.0
      ],
      "name": "4a1ffaa524b145b5a163d1ebbd129f0f.fbx"
    },
    {
      "children": [
        3,
        5,
        7,
        11,
        15
      ],
      "name": "RootNode"
    },
    {
      "children": [
        4
      ],
      "matrix": [
        1.0,
        0.0,
        0.0,
        0.0,
        0.0,
        2.220446049250313e-16,
        -1.0,
        0.0,
        0.0,
        1.3342920541763306,
        2.962723520241918e-16,
        0.0,
        97.55562591552734,
        -0.745610237121582,
        47.71711730957031,
        1.0
      ],
      "name": "GEO_Mattress_001"
    },
    {
      "mesh": 0,
      "name": "GEO_Mattress_001_Material #131_0"
    },
    {
      "children": [
        6
      ],
      "matrix": [
        0.999344531125326,
        -3.469446951953614e-18,
        0.036200940732284234,
        0.0,
        0.036200940732284234,
        1.1102230246251565e-16,
        -0.999344531125326,
        0.0,
        -4.996117960261084e-18,
        1.440032958984375,
        1.5987577472835468e-16,
        0.0,
        100.26580047607422,
        21.790925979614258,
        47.76433563232422,
        1.0
      ],
      "name": "GEO_Mattress_Top_001"
    },
    {
      "mesh": 1,
      "name": "GEO_Mattress_Top_001_Material #131_0"
    },
    {
      "children": [
        8
      ],
      "matrix": [
        0.7707732682214908,
        0.0,
        0.059130062678331916,
        0.0,
        0.05504179698529166,
        1.597810790918296e-16,
        -0.7174818329202197,
        0.0,
        0.0,
        1.0,
        2.220446049250313e-16,
        0.0,
        65.57662200927734,
        11.608379364013672,
        28.57498550415039,
        1.0
      ],
      "name": "GEO_Blanket_Underneath_001"
    },
    {
      "children": [
        9,
        10
      ],
      "matrix": [
        1.0,
        0.0,
        -0.0,
        0.0,
        0.0,
        1.0,
        0.0,
        0.0,
        0.0,
        0.0,
        1.0,
        0.0,
        -4.097651958465576,
        8.630806922912598,
        43.5002555847168,
        1.0
      ],
      "name": "Object_8"
    },
    {
      "mesh": 2,
      "name": "GEO_Blanket_Underneath_001_Material #131_0"
    },
    {
      "mesh": 3,
      "name": "GEO_Blanket_Underneath_001_Material #131_0"
    },
    {
      "children": [
        12,
        13,
        14
      ],
      "matrix": [
        1.2172620296478271,
        0.0,
        0.0,
        0.0,
        0.0,
        1.2120682809695435e-16,
        -0.5458670258522034,
        0.0,
        0.0,
        0.5159630179405212,
        1.1456680447452988e-16,
        0.0,
        92.02484130859375,
        42.267173767089844,
        34.82621765136719,
        1.0
      ],
      "name": "GEO_Blanket_Top_001"
    },
    {
      "mesh": 4,
      "name": "GEO_Blanket_Top_001_Material #131_0"
    },
    {
      "mesh": 5,
      "name": "GEO_Blanket_Top_001_Material #131_0"
    },
    {
      "mesh": 6,
      "name": "GEO_Blanket_Top_001_Material #131_0"
    },
    {
      "children": [
        16
      ],
      "matrix": [
        0.8493829965591431,
        0.0,
        0.0,
        0.0,
        0.0,
        1.8450508408456598e-16,
        -0.8309370279312134,
        0.0,
        0.0,
        1.4633469581604004,
        3.249282971929724e-16,
        0.0,
        178.22523498535156,
        33.94868469238281,
        50.37500762939453,
        1.0
      ],
      "name": "GEO_Bed_Pillow_001"
    },
    {
      "children": [
        17
      ],
      "matrix": [
        1.0,
        0.0,
        -0.0,
        0.0,
        0.0,
        1.0,
        0.0,
        0.0,
        0.0,
        0.0,
        1.0,
        0.0,
        0.23747339844703674,
        0.040941108018159866,
        10.258504867553711,
        1.0
      ],
      "name": "Object_16"
    },
    {
      "mesh": 7,
      "name": "GEO_Bed_Pillow_001_Material #131_0"
    }
  ],
  "scene": 0,
  "scenes": [
    {
      "name": "Sketchfab_Scene",
      "nodes": [
        0
      ]
    }
  ]
}
