{
  "accessors": [
    {
      "bufferView": 2,
      "componentType": 5126,
      "count": 4,
      "max": [
        0.6360489726066589,
        0.12093500047922134,
        1.6829010248184204
      ],
      "min": [
        -0.688273012638092,
        -1.2033870220184326,
        1.6829010248184204
      ],
      "type": "VEC3"
    },
    {
      "bufferView": 2,
      "byteOffset": 48,
      "componentType": 5126,
      "count": 4,
      "max": [
        0.0,
        -0.0,
        1.0
      ],
      "min": [
        0.0,
        -0.0,
        1.0
      ],
      "type": "VEC3"
    },
    {
      "bufferView": 1,
      "componentType": 5126,
      "count": 4,
      "max": [
        1.0,
        1.0
      ],
      "min": [
        0.0,
        0.0
      ],
      "type": "VEC2"
    },
    {
      "bufferView": 0,
      "componentType": 5125,
      "count": 6,
      "type": "SCALAR"
    },
    {
      "bufferView": 2,
      "byteOffset": 96,
      "componentType": 5126,
      "count": 4,
      "max": [
        0.6360489726066589,
        0.11576399952173233,
        2.7979929447174072
      ],
      "min": [
        -0.688273012638092,
        -1.2085579633712769,
        2.7979929447174072
      ],
      "type": "VEC3"
    },
    {
      "bufferView": 2,
      "byteOffset": 144,
      "componentType": 5126,
      "count": 4,
      "max": [
        0.0,
        -0.0,
        1.0
      ],
      "min": [
        0.0,
        -0.0,
        1.0
      ],
      "type": "VEC3"
    },
    {
      "bufferView": 1,
      "byteOffset": 32,
      "componentType": 5126,
      "count": 4,
      "max": [
        1.0,
        1.0
      ],
      "min": [
        0.0,
        0.0
      ],
      "type": "VEC2"
    },
    {
      "bufferView": 0,
      "byteOffset": 24,
      "componentType": 5125,
      "count": 6,
      "type": "SCALAR"
    },
    {
      "bufferView": 2,
      "byteOffset": 192,
      "componentType": 5126,
      "count": 3,
      "max": [
        -0.03276300057768822,
        -1.433724045753479,
        3.6935670375823975
      ],
      "min": [
        -0.03276300057768822,
        -1.433724045753479,
        3.1184070110321045
      ],
      "type": "VEC3"
    },
    {
      "bufferView": 1,
      "byteOffset": 64,
      "componentType": 5126,
      "count": 3,
      "max": [
        0.0,
        0.0
      ],
      "min": [
        0.0,
        0.0
      ],
      "type": "VEC2"
    },
    {
      "bufferView": 0,
      "byteOffset": 48,
      "componentType": 5125,
      "count": 4,
      "type": "SCALAR"
    },
    {
      "bufferView": 2,
      "byteOffset": 228,
      "componentType": 5126,
      "count": 3,
      "max": [
        -3.0569050312042236,
        -1.433724045753479,
        3.6935670375823975
      ],
      "min": [
        -3.0569050312042236,
        -1.433724045753479,
        3.1184070110321045
      ],
      "type": "VEC3"
    },
    {
      "bufferView": 1,
      "byteOffset": 88,
      "componentType": 5126,
      "count": 3,
      "max": [
        0.0,
        0.0
      ],
      "min": [
        0.0,
        0.0
      ],
      "type": "VEC2"
    },
    {
      "bufferView": 0,
      "byteOffset": 64,
      "componentType": 5125,
      "count": 4,
      "type": "SCALAR"
    },
    {
      "bufferView": 2,
      "byteOffset": 264,
      "componentType": 5126,
      "count": 216,
      "max": [
        -0.06520099937915802,
        -1.433724045753479,
        11.004831314086914
      ],
      "min": [
        -3.0569050312042236,
        -1.7625160217285156,
        3.1184070110321045
      ],
      "type": "VEC3"
    },
    {
      "bufferView": 2,
      "byteOffset": 2856,
      "componentType": 5126,
      "count": 216,
      "max": [
        1.0,
        1.0,
        1.0
      ],
      "min": [
        -1.0,
        -1.0,
        -1.0
      ],
      "type": "VEC3"
    },
    {
      "bufferView": 1,
      "byteOffset": 112,
      "componentType": 5126,
      "count": 216,
      "max": [
        3.0108649730682373,
        2.1336779594421387
      ],
      "min": [
        -2.0699360370635986,
        -1.1473809480667114
      ],
      "type": "VEC2"
    },
    {
      "bufferView": 0,
      "byteOffset": 80,
      "componentType": 5125,
      "count": 429,
      "type": "SCALAR"
    },
    {
      "bufferView": 2,
      "byteOffset": 5448,
      "componentType": 5126,
      "count": 48,
      "max": [
        -0.12325900048017502,
        -1.691707968711853,
        7.649892807006836
      ],
      "min": [
        -0.2760719954967499,
        -1.9397519826889038,
        6.830824851989746
      ],
      "type": "VEC3"
    },
    {
      "bufferView": 2,
      "byteOffset": 6024,
      "componentType": 5126,
      "count": 48,
      "max": [
        1.0,
        1.0,
        0.8296269774436951
      ],
      "min": [
        -1.0,
        -1.0,
        -0.8235076069831848
      ],
      "type": "VEC3"
    },
    {
      "bufferView": 1,
      "byteOffset": 1840,
      "componentType": 5126,
      "count": 48,
      "max": [
        0.7788879871368408,
        0.86012202501297
      ],
      "min": [
        -0.19043900072574615,
        0.25
      ],
      "type": "VEC2"
    },
    {
      "bufferView": 0,
      "byteOffset": 1796,
      "componentType": 5125,
      "count": 84,
      "type": "SCALAR"
    },
    {
      "bufferView": 2,
      "byteOffset": 6600,
      "componentType": 5126,
      "count": 5914,
      "max": [
        3.2643771171569824,
        1.4541009664535522,
        11.130638122558594
      ],
      "min": [
        -3.2643771171569824,
        -1.7625160217285156,
        -0.032010000199079514
      ],
      "type": "VEC3"
    },
    {
      "bufferView": 2,
      "byteOffset": 77568,
      "componentType": 5126,
      "count": 5914,
      "max": [
        1.0,
        1.0,
        1.0
      ],
      "min": [
        -1.0,
        -1.0,
        -1.0
      ],
      "type": "VEC3"
    },
    {
      "bufferView": 1,
      "byteOffset": 2224,
      "componentType": 5126,
      "count": 5914,
      "max": [
        2.976546049118042,
        2.1115150451660156
      ],
      "min": [
        -2.035615921020508,
        -1.1252189874649048
      ],
      "type": "VEC2"
    },
    {
      "bufferView": 0,
      "byteOffset": 2132,
      "componentType": 5125,
      "count": 9411,
      "type": "SCALAR"
    },
    {
      "bufferView": 2,
      "byteOffset": 148536,
      "componentType": 5126,
      "count": 796,
      "max": [
        0.35909000039100647,
        -1.432729959487915,
        7.649892807006836
      ],
      "min": [
        -0.0546719990670681,
        -1.9397519826889038,
        1.3930829763412476
      ],
      "type": "VEC3"
    },
    {
      "bufferView": 2,
      "byteOffset": 158088,
      "componentType": 5126,
      "count": 796,
      "max": [
        1.0,
        1.0,
        1.0
      ],
      "min": [
        -1.0,
        -1.0,
        -1.0
      ],
      "type": "VEC3"
    },
    {
      "bufferView": 1,
      "byteOffset": 49536,
      "componentType": 5126,
      "count": 796,
      "max": [
        0.9999480247497559,
        1.0001200437545776
      ],
      "min": [
        -0.3730419874191284,
        -0.02405799925327301
      ],
      "type": "VEC2"
    },
    {
      "bufferView": 0,
      "byteOffset": 39776,
      "componentType": 5125,
      "count": 1518,
      "type": "SCALAR"
    },
    {
      "bufferView": 2,
      "byteOffset": 167640,
      "componentType": 5126,
      "count": 65532,
      "max": [
        2.6056900024414063,
        1.1812490224838257,
        1.678805947303772
      ],
      "min": [
        -2.6100759506225586,
        -1.403367042541504,
        1.16109299659729
      ],
      "type": "VEC3"
    },
    {
      "bufferView": 2,
      "byteOffset": 954024,
      "componentType": 5126,
      "count": 65532,
      "max": [
        1.0,
        1.0,
        1.0
      ],
      "min": [
        -1.0,
        -1.0,
        -1.0
      ],
      "type": "VEC3"
    },
    {
      "bufferView": 1,
      "byteOffset": 55904,
      "componentType": 5126,
      "count": 65532,
      "max": [
        0.8556389808654785,
        1.0
      ],
      "min": [
        0.125,
        0.0
      ],
      "type": "VEC2"
    },
    {
      "bufferView": 0,
      "byteOffset": 45848,
      "componentType": 5125,
      "count": 97986,
      "type": "SCALAR"
    },
    {
      "bufferView": 2,
      "byteOffset": 1740408,
      "componentType": 5126,
      "count": 15156,
      "max": [
        2.5601699352264404,
        1.1812490224838257,
        1.678805947303772
      ],
      "min": [
        -2.564284086227417,
        -1.403367042541504,
        1.4232200384140015
      ],
      "type": "VEC3"
    },
    {
      "bufferView": 2,
      "byteOffset": 1922280,
      "componentType": 5126,
      "count": 15156,
      "max": [
        0.7059000730514526,
        0.7059000730514526,
        0.9999709129333496
      ],
      "min": [
        -0.7059000730514526,
        -0.7059000730514526,
        -0.9999709129333496
      ],
      "type": "VEC3"
    },
    {
      "bufferView": 1,
      "byteOffset": 580160,
      "componentType": 5126,
      "count": 15156,
      "max": [
        0.8545389771461487,
        0.9806389808654785
      ],
      "min": [
        0.125,
        0.0
      ],
      "type": "VEC2"
    },
    {
      "bufferView": 0,
      "byteOffset": 437792,
      "componentType": 5125,
      "count": 22734,
      "type": "SCALAR"
    },
    {
      "bufferView": 2,
      "byteOffset": 2104152,
      "componentType": 5126,
      "count": 65532,
      "max": [
        2.6056900024414063,
        1.176077961921692,
        2.7938990592956543
      ],
      "min": [
        -2.6100759506225586,
        -1.4085379838943481,
        2.2761850357055664
      ],
      "type": "VEC3"
    },
    {
      "bufferView": 2,
      "byteOffset": 2890536,
      "componentType": 5126,
      "count": 65532,
      "max": [
        1.0,
        1.0,
        1.0
      ],
      "min": [
        -1.0,
        -1.0,
        -1.0
      ],
      "type": "VEC3"
    },
    {
      "bufferView": 1,
      "byteOffset": 701408,
      "componentType": 5126,
      "count": 65532,
      "max": [
        0.8556389808654785,
        1.0
      ],
      "min": [
        0.125,
        0.0
      ],
      "type": "VEC2"
    },
    {
      "bufferView": 0,
      "byteOffset": 528728,
      "componentType": 5125,
      "count": 97986,
      "type": "SCALAR"
    },
    {
      "bufferView": 2,
      "byteOffset": 3676920,
      "componentType": 5126,
      "count": 15156,
      "max": [
        2.5601699352264404,
        1.176077961921692,
        2.7938990592956543
      ],
      "min": [
        -2.564284086227417,
        -1.4085379838943481,
        2.5383129119873047
      ],
      "type": "VEC3"
    },
    {
      "bufferView": 2,
      "byteOffset": 3858792,
      "componentType": 5126,
      "count": 15156,
      "max": [
        0.7059000730514526,
        0.7059000730514526,
        0.9999709129333496
      ],
      "min": [
        -0.7059000730514526,
        -0.7059000730514526,
        -0.9999709129333496
      ],
      "type": "VEC3"
    },
    {
      "bufferView": 1,
      "byteOffset": 1225664,
      "componentType": 5126,
      "count": 15156,
      "max": [
        0.8545389771461487,
        0.9806389808654785
      ],
      "min": [
        0.125,
        0.0
      ],
      "type": "VEC2"
    },
    {
      "bufferView": 0,
      "byteOffset": 920672,
      "componentType": 5125,
      "count": 22734,
      "type": "SCALAR"
    }
  ],
  "asset": {
    "extras": {
      "author": "Ezecrafting_YT (https://sketchfab.com/Ezecrafting_YT)",
      "license": "CC-BY-4.0 (http://creativecommons.org/licenses/by/4.0/)",
      "source": "https://sketchfab.com/3d-models/closet-high-poly-3d-model-c6498b9aec674265b6b828b287bc8512",
      "title": "Closet - High Poly 3D Model"
    },
    "generator": "Sketchfab-12.68.0",
    "version": "2.0"
  },
  "bufferViews": [
    {
      "buffer": 0,
      "byteLength": 1011608,
      "name": "floatBufferViews",
      "target": 34963
    },
    {
      "buffer": 0,
      "byteLength": 1346912,
      "byteOffset": 1011608,
      "byteStride": 8,
      "name": "floatBufferViews",
      "target": 34962
    },
    {
      "buffer": 0,
      "byteLength": 4040664,
      "byteOffset": 2358520,
      "byteStride": 12,
      "name": "floatBufferViews",
      "target": 34962
    }
  ],
  "buffers": [
    {
      "byteLength": 6399184,
      "uri": "closetscene.bin"
    }
  ],
  "images": [
    {
      "uri": "textures/Madera_baseColor.jpeg"
    },
    {
      "uri": "textures/Picaporte_baseColor.jpeg"
    },
    {
      "uri": "textures/Ropa_baseColor.jpeg"
    }
  ],
  "materials": [
    {
      "doubleSided": true,
      "name": "LogoEze",
      "pbrMetallicRoughness": {
        "baseColorFactor": [
          0.8,
          0.8,
          0.8,
          1.0
        ],
        "metallicFactor": 0.0,
        "roughnessFactor": 0.8063508327
      }
    },
    {
      "doubleSided": true,
      "name": "LogoTown",
      "pbrMetallicRoughness": {
        "baseColorFactor": [
          0.8,
          0.8,
          0.8,
          1.0
        ],
        "metallicFactor": 0.0,
        "roughnessFactor": 0.8063508327
      }
    },
    {
      "doubleSided": true,
      "name": "Madera",
      "pbrMetallicRoughness": {
        "metallicFactor": 0.0,
        "roughnessFactor": 0.8063508327
      }
    },
    {
      "doubleSided": true,
      "name": "Madera.001",
      "pbrMetallicRoughness": {
        "metallicFactor": 0.0,
        "roughnessFactor": 0.8063508327
      }
    },
    {
      "doubleSided": true,
      "name": "Picaporte",
      "pbrMetallicRoughness": {
        "metallicFactor": 0.0,
        "roughnessFactor": 0.8063508327
      }
    },
    {
      "doubleSided": true,
      "name": "Picaporte.001",
      "pbrMetallicRoughness": {
        "metallicFactor": 0.0,
        "roughnessFactor": 0.8063508327
      }
    },
    {
      "doubleSided": true,
      "name": "Ropa",
      "pbrMetallicRoughness": {
        "metallicFactor": 0.0,
        "roughnessFactor": 0.8063508327
      }
    }
  ],
  "meshes": [
    {
      "name": "Object_0",
      "primitives": [
        {
          "attributes": {
            "NORMAL": 1,
            "POSITION": 0,
            "TEXCOORD_0": 2
          },
          "indices": 3,
          "material": 0,
          "mode": 4
        }
      ]
    },
    {
      "name": "Object_1",
      "primitives": [
        {
          "attributes": {
            "NORMAL": 5,
            "POSITION": 4,
            "TEXCOORD_0": 6
          },
          "indices": 7,
          "material": 1,
          "mode": 4
        }
      ]
    },
    {
      "name": "Object_2",
      "primitives": [
        {
          "attributes": {
            "POSITION": 8,
            "TEXCOORD_0": 9
          },
          "indices": 10,
          "material": 2,
          "mode": 1
        }
      ]
    },
    {
      "name": "Object_3",
      "primitives": [
        {
          "attributes": {
            "POSITION": 11,
            "TEXCOORD_0": 12
          },
          "indices": 13,
          "material": 3,
          "mode": 1
        }
      ]
    },
    {
      "name": "Object_4",
      "primitives": [
        {
          "attributes": {
            "NORMAL": 15,
            "POSITION": 14,
            "TEXCOORD_0": 16
          },
          "indices": 17,
          "material": 3,
          "mode": 4
        }
      ]
    },
    {
      "name": "Object_5",
      "primitives": [
        {
          "attributes": {
            "NORMAL": 19,
            "POSITION": 18,
            "TEXCOORD_0": 20
          },
          "indices": 21,
          "material": 5,
          "mode": 4
        }
      ]
    },
    {
      "name": "Object_6",
      "primitives": [
        {
          "attributes": {
            "NORMAL": 23,
            "POSITION": 22,
            "TEXCOORD_0": 24
          },
          "indices": 25,
          "material": 2,
          "mode": 4
        }
      ]
    },
    {
      "name": "Object_7",
      "primitives": [
        {
          "attributes": {
            "NORMAL": 27,
            "POSITION": 26,
            "TEXCOORD_0": 28
          },
          "indices": 29,
          "material": 4,
          "mode": 4
        }
      ]
    },
    {
      "name": "Object_8",
      "primitives": [
        {
          "attributes": {
            "NORMAL": 31,
            "POSITION": 30,
            "TEXCOORD_0": 32
          },
          "indices": 33,
          "material": 6,
          "mode": 4
        }
      ]
    },
    {
      "name": "Object_9",
      "primitives": [
        {
          "attributes": {
            "NORMAL": 35,
            "POSITION": 34,
            "TEXCOORD_0": 36
          },
          "indices": 37,
          "material": 6,
          "mode": 4
        }
      ]
    },
    {
      "name": "Object_10",
      "primitives": [
        {
          "attributes": {
            "NORMAL": 39,
            "POSITION": 38,
            "TEXCOORD_0": 40
          },
          "indices": 41,
          "material": 6,
          "mode": 4
        }
      ]
    },
    {
      "name": "Object_11",
      "primitives": [
        {
          "attributes": {
            "NORMAL": 43,
            "POSITION": 42,
            "TEXCOORD_0": 44
          },
          "indices": 45,
          "material": 6,
          "mode": 4
        }
      ]
    }
  ],
  "nodes": [
    {
      "children": [
        1
      ],
      "matrix": [
        1.0,
        0.0,
        0.0,
        0.0,
        0.0,
        2.220446049250313e-16,
        -1.0,
        0.0,
        0.0,
        1.0,
        2.220446049250313e-16,
        0.0,
        0.0,
        0.0,
        0.0,
        1.0
      ],
      "name": "Sketchfab_model"
    },
    {
      "children": [
        2,
        3,
        4,
        5,
        6,
        7,
        8,
        9,
        10,
        11,
        12,
        13
      ],
      "name": "ClosetFixed.fbx.obj.cleaner.materialmerger.gles"
    },
    {
      "mesh": 0,
      "name": "Object_2"
    },
    {
      "mesh": 1,
      "name": "Object_3"
    },
    {
      "mesh": 2,
      "name": "Object_4"
    },
    {
      "mesh": 3,
      "name": "Object_5"
    },
    {
      "mesh": 4,
      "name": "Object_6"
    },
    {
      "mesh": 5,
      "name": "Object_7"
    },
    {
      "mesh": 6,
      "name": "Object_8"
    },
    {
      "mesh": 7,
      "name": "Object_9"
    },
    {
      "mesh": 8,
      "name": "Object_10"
    },
    {
      "mesh": 9,
      "name": "Object_11"
    },
    {
      "mesh": 10,
      "name": "Object_12"
    },
    {
      "mesh": 11,
      "name": "Object_13"
    }
  ],
  "samplers": [
    {
      "magFilter": 9729,
      "minFilter": 9987,
      "wrapS": 10497,
      "wrapT": 10497
    }
  ],
  "scene": 0,
  "scenes": [
    {
      "name": "Sketchfab_Scene",
      "nodes": [
        0
      ]
    }
  ],
  "textures": [
    {
      "sampler": 0,
      "source": 0
    },
    {
      "sampler": 0,
      "source": 1
    },
    {
      "sampler": 0,
      "source": 2
    }
  ]
}
