{
  "accessors": [
    {
      "bufferView": 2,
      "componentType": 5126,
      "count": 25921,
      "max": [
        118.24610137939453,
        6.858982086181641,
        176.01243591308594
      ],
      "min": [
        7.416668891906738,
        -0.20330099761486053,
        50.49616622924805
      ],
      "type": "VEC3"
    },
    {
      "bufferView": 2,
      "byteOffset": 311052,
      "componentType": 5126,
      "count": 25921,
      "max": [
        0.6778189539909363,
        1.0,
        0.8742735981941223
      ],
      "min": [
        -0.35332217812538147,
        0.47393912076950073,
        -0.8550710678100586
      ],
      "type": "VEC3"
    },
    {
      "bufferView": 1,
      "componentType": 5126,
      "count": 25921,
      "max": [
        1.2903149127960205,
        1.4587247371673584
      ],
      "min": [
        -0.230316162109375,
        -0.44789642095565796
      ],
      "type": "VEC2"
    },
    {
      "bufferView": 1,
      "byteOffset": 207368,
      "componentType": 5126,
      "count": 25921,
      "max": [
        1.2903149127960205,
        1.4587247371673584
      ],
      "min": [
        -0.230316162109375,
        -0.44789642095565796
      ],
      "type": "VEC2"
    },
    {
      "bufferView": 0,
      "componentType": 5125,
      "count": 153600,
      "type": "SCALAR"
    }
  ],
  "asset": {
    "extras": {
      "author": "jesseroberts (https://sketchfab.com/jesseroberts)",
      "license": "CC-BY-4.0 (http://creativecommons.org/licenses/by/4.0/)",
      "source": "https://sketchfab.com/3d-models/rug-9664d8fba94f4e43af6b1a3d1d155f89",
      "title": "Rug"
    },
    "generator": "Sketchfab-12.65.0",
    "version": "2.0"
  },
  "bufferViews": [
    {
      "buffer": 0,
      "byteLength": 614400,
      "name": "floatBufferViews",
      "target": 34963
    },
    {
      "buffer": 0,
      "byteLength": 414736,
      "byteOffset": 614400,
      "byteStride": 8,
      "name": "floatBufferViews",
      "target": 34962
    },
    {
      "buffer": 0,
      "byteLength": 622104,
      "byteOffset": 1029136,
      "byteStride": 12,
      "name": "floatBufferViews",
      "target": 34962
    }
  ],
  "buffers": [
    {
      "byteLength": 1651240,
      "uri": "scene.bin"
    }
  ],
  "images": [
    {
      "uri": "textures/blinn1_baseColor.jpeg"
    }
  ],
  "materials": [
    {
      "doubleSided": true,
      "name": "blinn1",
      "pbrMetallicRoughness": {
        "metallicFactor": 0.0
      }
    }
  ],
  "meshes": [
    {
      "name": "Mesh_blinn1_0",
      "primitives": [
        {
          "attributes": {
            "NORMAL": 1,
            "POSITION": 0,
            "TEXCOORD_0": 2,
            "TEXCOORD_1": 3
          },
          "indices": 4,
          "material": 0,
          "mode": 4
        }
      ]
    }
  ],
  "nodes": [
    {
      "children": [
        1
      ],
      "matrix": [
        1.0,
        0.0,
        0.0,
        0.0,
        0.0,
        2.220446049250313e-16,
        -1.0,
        0.0,
        0.0,
        1.0,
        2.220446049250313e-16,
        0.0,
        0.0,
        0.0,
        0.0,
        1.0
      ],
      "name": "Sketchfab_model"
    },
    {
      "children": [
        2
      ],
      "matrix": [
        1.0,
        0.0,
        0.0,
        0.0,
        0.0,
        0.0,
        1.0,
        0.0,
        0.0,
        -1.0,
        0.0,
        0.0,
        0.0,
        0.0,
        0.0,
        1.0
      ],
      "name": "1eebbfcd3a354accb3204c6824e61959.fbx"
    },
    {
      "children": [
        3
      ],
      "name": "RootNode"
    },
    {
      "children": [
        4
      ],
      "matrix": [
        1.0,
        0.0,
        0.0,
        0.0,
        0.0,
        1.0,
        0.0,
        0.0,
        0.0,
        0.0,
        1.0,
        0.0,
        -60.60413360595703,
        0.0,
        -109.93578338623047,
        1.0
      ],
      "name": "Mesh"
    },
    {
      "mesh": 0,
      "name": "Mesh_blinn1_0"
    }
  ],
  "samplers": [
    {
      "magFilter": 9729,
      "minFilter": 9987,
      "wrapS": 10497,
      "wrapT": 10497
    }
  ],
  "scene": 0,
  "scenes": [
    {
      "name": "Sketchfab_Scene",
      "nodes": [
        0
      ]
    }
  ],
  "textures": [
    {
      "sampler": 0,
      "source": 0
    }
  ]
}
