{
  "accessors": [
    {
      "bufferView": 2,
      "componentType": 5126,
      "count": 23222,
      "max": [
        1.001288652420044,
        0.014175151474773884,
        1.0008713006973267
      ],
      "min": [
        -1.0001314878463745,
        -0.0264875628054142,
        -1.0007528066635132
      ],
      "type": "VEC3"
    },
    {
      "bufferView": 2,
      "byteOffset": 278664,
      "componentType": 5126,
      "count": 23222,
      "max": [
        0.9999794960021973,
        1.0,
        0.9999823570251465
      ],
      "min": [
        -0.9999794960021973,
        -1.0,
        -0.9999990463256836
      ],
      "type": "VEC3"
    },
    {
      "bufferView": 1,
      "componentType": 5126,
      "count": 23222,
      "max": [
        1.0010836124420166,
        1.0010836124420166
      ],
      "min": [
        -0.001083433860912919,
        -0.001083433860912919
      ],
      "type": "VEC2"
    },
    {
      "bufferView": 0,
      "componentType": 5125,
      "count": 134784,
      "type": "SCALAR"
    }
  ],
  "asset": {
    "extras": {
      "author": "GIR__ (https://sketchfab.com/GIR__)",
      "license": "CC-BY-4.0 (http://creativecommons.org/licenses/by/4.0/)",
      "source": "https://sketchfab.com/3d-models/shaggy-rug-64109128f6784c2caaa8cf9904d85043",
      "title": "Shaggy Rug"
    },
    "generator": "Sketchfab-12.67.0",
    "version": "2.0"
  },
  "bufferViews": [
    {
      "buffer": 0,
      "byteLength": 539136,
      "name": "floatBufferViews",
      "target": 34963
    },
    {
      "buffer": 0,
      "byteLength": 185776,
      "byteOffset": 539136,
      "byteStride": 8,
      "name": "floatBufferViews",
      "target": 34962
    },
    {
      "buffer": 0,
      "byteLength": 557328,
      "byteOffset": 724912,
      "byteStride": 12,
      "name": "floatBufferViews",
      "target": 34962
    }
  ],
  "buffers": [
    {
      "byteLength": 1282240,
      "uri": "rug.bin"
    }
  ],
  "materials": [
    {
      "doubleSided": true,
      "name": "Carpet_base"
    }
  ],
  "meshes": [
    {
      "name": "Object_0",
      "primitives": [
        {
          "attributes": {
            "NORMAL": 1,
            "POSITION": 0,
            "TEXCOORD_0": 2
          },
          "indices": 3,
          "material": 0,
          "mode": 4
        }
      ]
    }
  ],
  "nodes": [
    {
      "children": [
        1
      ],
      "matrix": [
        1.0,
        0.0,
        0.0,
        0.0,
        0.0,
        2.220446049250313e-16,
        -1.0,
        0.0,
        0.0,
        1.0,
        2.220446049250313e-16,
        0.0,
        0.0,
        0.0,
        0.0,
        1.0
      ],
      "name": "Sketchfab_model"
    },
    {
      "children": [
        2
      ],
      "name": "root"
    },
    {
      "children": [
        3
      ],
      "matrix": [
        1.0,
        0.0,
        0.0,
        0.0,
        0.0,
        2.220446049250313e-16,
        1.0,
        0.0,
        0.0,
        -1.0,
        2.220446049250313e-16,
        0.0,
        0.0,
        0.0,
        0.0,
        1.0
      ],
      "name": "GLTF_SceneRootNode"
    },
    {
      "children": [
        4
      ],
      "matrix": [
        6.197984218597412,
        0.0,
        0.0,
        0.0,
        0.0,
        6.197984218597412,
        0.0,
        0.0,
        0.0,
        0.0,
        6.197984218597412,
        0.0,
        0.0,
        0.0,
        0.0,
        1.0
      ],
      "name": "Plane_0"
    },
    {
      "mesh": 0,
      "name": "Object_4"
    }
  ],
  "scene": 0,
  "scenes": [
    {
      "name": "Sketchfab_Scene",
      "nodes": [
        0
      ]
    }
  ]
}
